<?xml version="1.0" standalone="no"?><!DOCTYPE svg PUBLIC "-//W3C//DTD SVG 1.1//EN" "http://www.w3.org/Graphics/SVG/1.1/DTD/svg11.dtd"><svg t="1639744871994" class="icon" viewBox="0 0 1024 1024" version="1.1" xmlns="http://www.w3.org/2000/svg" p-id="2250" xmlns:xlink="http://www.w3.org/1999/xlink" width="200" height="200"><defs><style type="text/css"></style></defs><path d="M512 1006.933333c-30.72 0-51.2-27.306667-71.68-54.613333-13.653333-17.066667-27.306667-37.546667-37.546667-37.546667-10.24-3.413333-34.133333 6.826667-54.613333 13.653334-30.72 13.653333-61.44 27.306667-85.333333 13.653333s-27.306667-47.786667-34.133334-81.92c-3.413333-20.48-3.413333-44.373333-13.653333-54.613333-6.826667-6.826667-30.72-10.24-54.613333-13.653334-34.133333-3.413333-68.266667-6.826667-81.92-34.133333-13.653333-23.893333 0-54.613333 13.653333-85.333333 10.24-20.48 17.066667-40.96 13.653333-54.613334-3.413333-10.24-20.48-23.893333-37.546666-37.546666-27.306667-20.48-54.613333-40.96-54.613334-71.68s27.306667-51.2 54.613334-71.68c17.066667-13.653333 37.546667-27.306667 37.546666-37.546667 3.413333-10.24-6.826667-34.133333-13.653333-54.613333-10.24-23.893333-23.893333-54.613333-10.24-81.92 13.653333-23.893333 47.786667-27.306667 81.92-34.133334 20.48-3.413333 44.373333-3.413333 54.613333-13.653333 6.826667-6.826667 10.24-30.72 13.653334-54.613333 3.413333-34.133333 6.826667-68.266667 34.133333-81.92 23.893333-13.653333 54.613333 0 85.333333 13.653333 20.48 10.24 40.96 17.066667 54.613334 13.653333 10.24-3.413333 23.893333-20.48 37.546666-37.546666 20.48-27.306667 40.96-54.613333 71.68-54.613334s51.2 27.306667 71.68 54.613334c13.653333 17.066667 27.306667 37.546667 37.546667 37.546666 10.24 3.413333 34.133333-6.826667 54.613333-13.653333 30.72-13.653333 61.44-27.306667 85.333334-13.653333s27.306667 47.786667 34.133333 81.92c3.413333 20.48 3.413333 44.373333 13.653333 54.613333 6.826667 6.826667 30.72 10.24 54.613334 13.653333 34.133333 3.413333 68.266667 6.826667 81.92 34.133334 13.653333 23.893333 0 54.613333-13.653334 85.333333-10.24 20.48-17.066667 40.96-13.653333 54.613333 3.413333 10.24 20.48 23.893333 37.546667 37.546667 27.306667 20.48 54.613333 40.96 54.613333 71.68s-27.306667 51.2-54.613333 71.68c-17.066667 13.653333-37.546667 27.306667-37.546667 37.546667-3.413333 10.24 6.826667 34.133333 13.653333 54.613333 13.653333 30.72 27.306667 61.44 13.653334 85.333333s-47.786667 27.306667-81.92 34.133334c-20.48 3.413333-44.373333 3.413333-54.613334 13.653333-6.826667 6.826667-10.24 30.72-13.653333 54.613333-3.413333 34.133333-6.826667 68.266667-34.133333 81.92-23.893333 13.653333-54.613333 0-85.333334-13.653333-20.48-10.24-40.96-17.066667-54.613333-13.653333-10.24 3.413333-23.893333 20.48-37.546667 37.546666-23.893333 23.893333-44.373333 51.2-75.093333 51.2z m-112.64-129.706666c3.413333 0 10.24 0 13.653333 3.413333 23.893333 6.826667 40.96 30.72 54.613334 51.2 13.653333 17.066667 30.72 40.96 44.373333 40.96s30.72-23.893333 44.373333-40.96c17.066667-23.893333 34.133333-44.373333 54.613334-51.2 23.893333-6.826667 51.2 6.826667 75.093333 17.066667 20.48 10.24 44.373333 20.48 54.613333 13.653333 10.24-6.826667 13.653333-34.133333 17.066667-54.613333 3.413333-27.306667 6.826667-58.026667 23.893333-75.093334s44.373333-20.48 75.093334-23.893333c23.893333-3.413333 51.2-6.826667 54.613333-17.066667 6.826667-10.24-6.826667-34.133333-13.653333-54.613333-10.24-27.306667-23.893333-54.613333-17.066667-75.093333 6.826667-23.893333 30.72-40.96 51.2-54.613334 17.066667-13.653333 40.96-30.72 40.96-40.96s-23.893333-30.72-40.96-40.96c-23.893333-17.066667-44.373333-34.133333-51.2-54.613333-6.826667-23.893333 6.826667-51.2 17.066667-75.093333 10.24-20.48 20.48-44.373333 13.653333-54.613334-6.826667-10.24-34.133333-13.653333-54.613333-17.066666-27.306667-3.413333-58.026667-6.826667-75.093334-23.893334-17.066667-17.066667-20.48-44.373333-23.893333-75.093333-3.413333-20.48-6.826667-51.2-17.066667-54.613333-10.24-6.826667-34.133333 6.826667-54.613333 13.653333-27.306667 10.24-54.613333 23.893333-75.093333 17.066667-23.893333-6.826667-40.96-30.72-54.613334-51.2-13.653333-17.066667-30.72-40.96-44.373333-40.96s-30.72 23.893333-44.373333 40.96c-17.066667 23.893333-34.133333 44.373333-54.613334 51.2-23.893333 6.826667-51.2-6.826667-75.093333-17.066667-20.48-13.653333-47.786667-27.306667-58.026667-20.48-10.24 6.826667-13.653333 34.133333-17.066666 54.613333 0 30.72-3.413333 58.026667-20.48 75.093334s-44.373333 20.48-75.093334 23.893333c-20.48 3.413333-47.786667 3.413333-54.613333 13.653333-6.826667 10.24 6.826667 34.133333 13.653333 54.613334 10.24 27.306667 23.893333 54.613333 17.066667 75.093333-6.826667 23.893333-30.72 40.96-51.2 54.613333-17.066667 13.653333-40.96 30.72-40.96 40.96s23.893333 30.72 40.96 40.96c23.893333 17.066667 44.373333 34.133333 51.2 54.613334 6.826667 23.893333-6.826667 51.2-17.066667 75.093333-10.24 20.48-20.48 44.373333-13.653333 54.613333 6.826667 10.24 34.133333 13.653333 54.613333 17.066667 27.306667 3.413333 58.026667 6.826667 75.093334 23.893333 17.066667 17.066667 20.48 44.373333 23.893333 75.093334 3.413333 20.48 6.826667 51.2 17.066667 54.613333 10.24 6.826667 34.133333-6.826667 54.613333-13.653333 20.48 0 40.96-10.24 61.44-10.24z" fill="#d81e06" p-id="2251"></path><path d="M819.2 597.333333h-102.4c-10.24 0-17.066667-6.826667-17.066667-17.066666v-170.666667c0-10.24 6.826667-17.066667 17.066667-17.066667h102.4c10.24 0 17.066667 6.826667 17.066667 17.066667s-6.826667 17.066667-17.066667 17.066667h-85.333333v136.533333H819.2c10.24 0 17.066667 6.826667 17.066667 17.066667s-6.826667 17.066667-17.066667 17.066666z" fill="#d81e06" p-id="2252"></path><path d="M819.2 512h-102.4c-10.24 0-17.066667-6.826667-17.066667-17.066667s6.826667-17.066667 17.066667-17.066666h102.4c10.24 0 17.066667 6.826667 17.066667 17.066666s-6.826667 17.066667-17.066667 17.066667zM648.533333 597.333333h-102.4c-10.24 0-17.066667-6.826667-17.066666-17.066666v-170.666667c0-10.24 6.826667-17.066667 17.066666-17.066667s17.066667 6.826667 17.066667 17.066667v153.6H648.533333c10.24 0 17.066667 6.826667 17.066667 17.066667s-6.826667 17.066667-17.066667 17.066666zM460.8 597.333333c-6.826667 0-13.653333-6.826667-17.066667-13.653333l-27.306666-105.813333-27.306667 105.813333c-3.413333 10.24-10.24 13.653333-20.48 13.653333-10.24-3.413333-13.653333-10.24-13.653333-20.48l44.373333-170.666666c3.413333-13.653333 30.72-13.653333 34.133333 0l44.373334 170.666666c3.413333 10.24-3.413333 17.066667-13.653334 20.48h-3.413333z" fill="#d81e06" p-id="2253"></path><path d="M440.32 563.2h-44.373333c-10.24 0-17.066667-6.826667-17.066667-17.066667s6.826667-17.066667 17.066667-17.066666h44.373333c10.24 0 17.066667 6.826667 17.066667 17.066666s-6.826667 17.066667-17.066667 17.066667z" fill="#d81e06" p-id="2254"></path><path d="M256 597.333333c-37.546667 0-64.853333-23.893333-68.266667-54.613333 0-10.24 6.826667-17.066667 17.066667-17.066667 6.826667 0 17.066667 6.826667 17.066667 17.066667 0 13.653333 17.066667 23.893333 34.133333 23.893333s34.133333-10.24 34.133333-27.306666c0-13.653333-10.24-20.48-34.133333-23.893334h-3.413333c-51.2-10.24-61.44-37.546667-61.44-58.026666 0-34.133333 30.72-61.44 68.266666-61.44s64.853333 23.893333 68.266667 54.613333c0 10.24-6.826667 17.066667-17.066667 17.066667s-17.066667-6.826667-17.066666-17.066667c0-13.653333-17.066667-23.893333-34.133334-23.893333s-34.133333 10.24-34.133333 27.306666c0 13.653333 10.24 20.48 34.133333 23.893334v17.066666l3.413334-17.066666c51.2 10.24 61.44 37.546667 61.44 58.026666 0 34.133333-30.72 61.44-68.266667 61.44z" fill="#d81e06" p-id="2255"></path></svg>